<?xml version="1.0" encoding="UTF-8" standalone="no"?>
<!-- Created with Inkscape (http://www.inkscape.org/) -->

<svg
   xmlns:dc="http://purl.org/dc/elements/1.1/"
   xmlns:cc="http://creativecommons.org/ns#"
   xmlns:rdf="http://www.w3.org/1999/02/22-rdf-syntax-ns#"
   xmlns:svg="http://www.w3.org/2000/svg"
   xmlns="http://www.w3.org/2000/svg"
   xmlns:sodipodi="http://sodipodi.sourceforge.net/DTD/sodipodi-0.dtd"
   xmlns:inkscape="http://www.inkscape.org/namespaces/inkscape"
   width="129mm"
   height="129mm"
   viewBox="0 0 129 129"
   version="1.1"
   id="svg5092"
   inkscape:version="0.92.1 r15371"
   sodipodi:docname="waves.svg">
  <defs
     id="defs5086" />
  <sodipodi:namedview
     id="base"
     pagecolor="#ffffff"
     bordercolor="#666666"
     borderopacity="1.0"
     inkscape:pageopacity="0.0"
     inkscape:pageshadow="2"
     inkscape:zoom="0.98994949"
     inkscape:cx="287.66805"
     inkscape:cy="236.96867"
     inkscape:document-units="mm"
     inkscape:current-layer="layer1"
     showgrid="false"
     inkscape:window-width="1366"
     inkscape:window-height="732"
     inkscape:window-x="0"
     inkscape:window-y="0"
     inkscape:window-maximized="1" />
  <metadata
     id="metadata5089">
    <rdf:RDF>
      <cc:Work
         rdf:about="">
        <dc:format>image/svg+xml</dc:format>
        <dc:type
           rdf:resource="http://purl.org/dc/dcmitype/StillImage" />
        <dc:title></dc:title>
      </cc:Work>
    </rdf:RDF>
  </metadata>
  <g
     inkscape:label="Layer 1"
     inkscape:groupmode="layer"
     id="layer1"
     transform="translate(0,-168)">
    <path
       style="fill:#000000;fill-opacity:1;stroke:#fffff6;stroke-width:14.30486584;stroke-miterlimit:4;stroke-dasharray:none;stroke-dashoffset:0;stroke-opacity:1"
       id="path5724"
       d="m 15.660399,207.47209 c 0.04194,-0.0738 0.08698,-0.14386 0.130163,-0.21649 0.07513,-0.12859 0.131511,-0.27065 0.192922,-0.40889 0.08675,-0.20526 0.177759,-0.40779 0.265255,-0.61261 0.112891,-0.26912 0.226854,-0.53757 0.340903,-0.80598 0.143079,-0.3325 0.288249,-0.66371 0.437292,-0.99242 0.178259,-0.40348 0.367201,-0.79975 0.559,-1.19415 0.227769,-0.47086 0.46454,-0.93538 0.702065,-1.3992 0.274356,-0.53423 0.560811,-1.05938 0.848099,-1.58371 0.31617,-0.57939 0.647697,-1.14635 0.984205,-1.70894 0.364781,-0.60895 0.742162,-1.20689 1.126323,-1.79844 0.405508,-0.62364 0.826888,-1.23202 1.25148,-1.83701 0.428513,-0.61241 0.868698,-1.21281 1.310114,-1.81182 0.43851,-0.59532 0.893967,-1.17207 1.357486,-1.73934 0.45859,-0.55984 0.931553,-1.10226 1.410856,-1.63646 0.468656,-0.52899 0.959999,-1.02757 1.459534,-1.51384 0.492,-0.47696 1.002263,-0.92532 1.522623,-1.3565 0.512824,-0.42204 1.048825,-0.80082 1.592389,-1.1625 0.543841,-0.36294 1.110506,-0.67132 1.682054,-0.96514 0.58588,-0.29843 1.189913,-0.54041 1.796666,-0.76933 1.83761,-0.63655 3.677231,-1.29047 5.559114,-1.70826 0.645305,-0.14819 1.298843,-0.22889 1.952748,-0.29726 0.664929,-0.0645 1.332512,-0.0739 1.999232,-0.0653 0.6822,0.0155 1.361533,0.089 2.038533,0.18647 0.69997,0.10012 1.392475,0.257 2.082004,0.4301 0.714189,0.18075 1.420152,0.40361 2.121678,0.64441 0.723393,0.2491 1.434217,0.54612 2.140318,0.85745 0.725792,0.32017 1.440995,0.67262 2.148478,1.04668 0.715534,0.38038 1.420063,0.78907 2.118476,1.21241 0.705567,0.42241 1.393648,0.88368 2.072565,1.36415 0.677267,0.48163 1.339132,0.99361 1.988696,1.52701 0.658831,0.53157 1.290846,1.10689 1.915122,1.69459 0.642503,0.61392 1.260046,1.26371 1.867871,1.92596 0.620041,0.68115 1.219276,1.38844 1.812073,2.1033 0.600052,0.71905 1.191097,1.44847 1.773666,2.18781 0.584412,0.73561 1.157887,1.48344 1.730061,2.23266 0.570508,0.74624 1.135263,1.49874 1.69346,2.25818 0.558865,0.75761 1.110116,1.52318 1.659976,2.29015 0.540891,0.74885 1.075754,1.50396 1.612246,2.25729 0.516047,0.72745 1.036825,1.45 1.558136,2.172 0.507381,0.70808 1.0225,1.40807 1.544369,2.1008 0.499907,0.67267 1.009688,1.33462 1.52249,1.99314 0.491485,0.6283 0.988616,1.25028 1.494679,1.86174 0.484516,0.58514 0.980999,1.15567 1.489803,1.71038 0.491651,0.53767 1.006097,1.04408 1.52646,1.54105 0.504346,0.48232 1.03295,0.92518 1.567493,1.35751 0.515609,0.41641 1.05127,0.7948 1.594403,1.15683 0.525902,0.34674 1.063182,0.66794 1.610346,0.96352 0.532596,0.28746 1.07985,0.53181 1.634849,0.74892 0.543361,0.20535 1.098554,0.35982 1.660264,0.47175 0.566179,0.10707 1.138961,0.12652 1.71083,0.11009 0.58786,-0.0167 1.168967,-0.122 1.742166,-0.27302 1.295423,-0.40264 3.223367,-0.99935 -2.802924,0.88959 -0.0996,0.0314 0.197956,-0.0679 0.296398,-0.10434 0.269045,-0.0989 0.325583,-0.12562 0.592116,-0.23668 0.603944,-0.2594 1.187463,-0.57967 1.763914,-0.91556 0.579781,-0.33975 1.144739,-0.71392 1.703566,-1.10037 0.546464,-0.38246 1.083908,-0.78297 1.61637,-1.19267 0.516792,-0.39792 1.024281,-0.81265 1.528177,-1.23347 0.48348,-0.4053 0.95929,-0.82339 1.43094,-1.24814 0.4594,-0.41239 0.90597,-0.8446 1.34817,-1.28296 0.43221,-0.42756 0.85105,-0.87371 1.26447,-1.32699 0.40114,-0.44154 0.78723,-0.90211 1.16465,-1.37257 0.36708,-0.459 0.7254,-0.92789 1.08427,-1.39606 0.34405,-0.44485 0.67821,-0.90038 1.01405,-1.35406 0,0 3.82933,-0.74387 3.82933,-0.74387 v 0 c -0.33904,0.45423 -0.67324,0.91366 -1.01768,1.36206 -0.36055,0.46983 -0.71925,0.9418 -1.08626,1.40434 -0.37673,0.48029 -0.76113,0.95189 -1.16303,1.40223 -0.4121,0.46267 -0.83155,0.91588 -1.264,1.35118 -0.44204,0.44551 -0.88864,0.88463 -1.34707,1.30584 -0.47327,0.42869 -0.94814,0.85485 -1.43314,1.26447 -0.50435,0.4268 -1.01242,0.84731 -1.52966,1.25153 -0.53324,0.41528 -1.07004,0.82388 -1.6167,1.21353 -0.55806,0.39592 -1.121813,0.78076 -1.700518,1.1321 -0.575375,0.34766 -1.155925,0.68374 -1.756279,0.9659 -1.766483,0.80641 -3.616716,1.32408 -5.461414,1.80915 -0.586056,0.12068 -1.177543,0.20168 -1.773302,0.19391 -0.583034,-0.0109 -1.166086,-0.0537 -1.73934,-0.19002 -0.567971,-0.13876 -1.1311,-0.30699 -1.679334,-0.53459 -0.558124,-0.23625 -1.1098,-0.49445 -1.645927,-0.79599 -0.548668,-0.31122 -1.090155,-0.64065 -1.617994,-1.00027 -0.545609,-0.37518 -1.083382,-0.7669 -1.601617,-1.19477 -0.537585,-0.44289 -1.06616,-0.90142 -1.573638,-1.39316 -0.522793,-0.50618 -1.03762,-1.02443 -1.531331,-1.57129 -0.508652,-0.5639 -1.006556,-1.14151 -1.492126,-1.73401 -0.50422,-0.61787 -1.002102,-1.24316 -1.492871,-1.87643 -0.511419,-0.66205 -1.019644,-1.32761 -1.519646,-2.00212 -0.520895,-0.69675 -1.034542,-1.40114 -1.543357,-2.11058 -0.521087,-0.72287 -1.040741,-1.44725 -1.555446,-2.17668 -0.534246,-0.75389 -1.068232,-1.50807 -1.607444,-2.25687 -0.549084,-0.76524 -1.099308,-1.5294 -1.658264,-2.28435 -0.558295,-0.75579 -1.120832,-1.50705 -1.690589,-2.25047 -0.571476,-0.74678 -1.144626,-1.49172 -1.727779,-2.22546 -0.582789,-0.7346 -1.172558,-1.46103 -1.771771,-2.17642 -0.590508,-0.7082 -1.188663,-1.40742 -1.80797,-2.07965 -0.605981,-0.65209 -1.221632,-1.29172 -1.863626,-1.89278 -0.622221,-0.57784 -1.254899,-1.13899 -1.908763,-1.6648 -0.648557,-0.52128 -1.306467,-1.02606 -1.980911,-1.49819 -0.676485,-0.47084 -1.36329,-0.91974 -2.06438,-1.33608 -0.696491,-0.41559 -1.399378,-0.81591 -2.112823,-1.18821 -0.7062,-0.36352 -1.419218,-0.70764 -2.142853,-1.01851 -0.703496,-0.30139 -1.412288,-0.58607 -2.132863,-0.82376 -0.700164,-0.22821 -1.403603,-0.44275 -2.115709,-0.61133 -0.686714,-0.1612 -1.376785,-0.30263 -2.07312,-0.39007 -0.673063,-0.0824 -1.348536,-0.1403 -2.025534,-0.13877 -0.662931,0.005 -1.326349,0.0262 -1.986286,0.10751 -0.650386,0.0799 -1.299066,0.18117 -1.939679,0.34062 -0.293419,0.0731 -0.338924,0.0822 -0.630551,0.16448 -0.104405,0.0296 -0.416253,0.12471 -0.312649,0.0913 6.00768,-1.9328 4.047456,-1.29273 2.753152,-0.87776 -0.606407,0.21494 -1.209434,0.44572 -1.798216,0.72327 -0.571891,0.27876 -1.139693,0.57167 -1.685619,0.91844 -0.545303,0.3464 -1.083106,0.71068 -1.598549,1.11825 -0.524603,0.41473 -1.03523,0.85373 -1.529381,1.31931 -0.500916,0.47577 -0.995677,0.96161 -1.46528,1.48171 -0.478903,0.52966 -0.955995,1.06173 -1.415152,1.61618 -0.46405,0.55987 -0.922025,1.12706 -1.361307,1.71516 -0.441882,0.59537 -0.882652,1.19207 -1.312057,1.80044 -0.422766,0.60038 -0.845811,1.20065 -1.249345,1.81992 -0.38391,0.58369 -0.759734,1.175 -1.122077,1.77822 -0.334444,0.55621 -0.66603,1.11516 -0.979118,1.68909 -0.286212,0.51719 -0.565666,1.03991 -0.84001,1.56619 -0.234362,0.45884 -0.466254,0.91957 -0.692112,1.3845 -0.186141,0.39042 -0.377423,0.77739 -0.54985,1.17694 -0.143728,0.32687 -0.290889,0.65161 -0.428642,0.98226 -0.11413,0.26435 -0.224033,0.53137 -0.331663,0.7996 -0.08396,0.20451 -0.166434,0.40963 -0.256537,0.61034 -0.05821,0.14803 -0.121174,0.29304 -0.177627,0.44195 -0.03604,0.0848 -0.07363,0.16791 -0.120646,0.24472 0,0 -3.890254,0.81527 -3.890254,0.81527 z"
       inkscape:connector-curvature="0" />
    <path
       style="fill:#000000;fill-opacity:1;stroke:#fffff6;stroke-width:14.30486584;stroke-miterlimit:4;stroke-dasharray:none;stroke-dashoffset:0;stroke-opacity:1"
       id="path5724-3"
       d="m 15.285766,264.16138 c 0.04195,-0.0737 0.08698,-0.14385 0.130164,-0.21647 0.07513,-0.12861 0.13151,-0.27066 0.192921,-0.40889 0.08675,-0.20525 0.177759,-0.40781 0.265256,-0.61262 0.11289,-0.26912 0.226854,-0.53757 0.340902,-0.80599 0.14308,-0.33249 0.288249,-0.6637 0.437292,-0.99241 0.178259,-0.40349 0.367201,-0.79976 0.559001,-1.19415 0.22777,-0.47086 0.464541,-0.93538 0.702065,-1.39919 0.274355,-0.53423 0.56081,-1.05939 0.848097,-1.58371 0.31617,-0.57939 0.647699,-1.14637 0.984205,-1.70896 0.364782,-0.60895 0.742163,-1.20688 1.126324,-1.79843 0.405509,-0.62363 0.826888,-1.23203 1.25148,-1.83701 0.428515,-0.61242 0.868698,-1.21281 1.310115,-1.81183 0.43851,-0.59532 0.893965,-1.17206 1.357486,-1.73934 0.458589,-0.55983 0.931551,-1.10225 1.410855,-1.63645 0.468656,-0.52899 0.959999,-1.02757 1.459533,-1.51385 0.492002,-0.47696 1.002263,-0.92532 1.522624,-1.3565 0.512823,-0.42204 1.048825,-0.8008 1.592391,-1.1625 0.543839,-0.36294 1.110504,-0.67131 1.682053,-0.96513 0.58588,-0.29843 1.189913,-0.54041 1.796665,-0.76934 1.837609,-0.63654 3.67723,-1.29046 5.559116,-1.70825 0.645302,-0.1482 1.298841,-0.22889 1.952746,-0.29726 0.66493,-0.0645 1.332512,-0.0739 1.999231,-0.0653 0.682201,0.0155 1.361532,0.089 2.038534,0.18647 0.69997,0.10012 1.392475,0.257 2.082005,0.43009 0.714189,0.18077 1.42015,0.40362 2.121678,0.64444 0.723391,0.24907 1.434216,0.54611 2.140316,0.85743 0.725793,0.32017 1.440998,0.67261 2.148477,1.04668 0.715536,0.3804 1.420066,0.78909 2.118479,1.21241 0.705567,0.42241 1.393648,0.88368 2.072563,1.36415 0.677269,0.48163 1.339134,0.99362 1.988697,1.527 0.658831,0.53157 1.290846,1.10689 1.915121,1.6946 0.642503,0.61392 1.260049,1.26371 1.867872,1.92596 0.620044,0.68115 1.219275,1.38845 1.812072,2.1033 0.600055,0.71904 1.191098,1.44846 1.773667,2.18781 0.584411,0.73561 1.157887,1.48344 1.730063,2.23266 0.570507,0.74624 1.135261,1.49874 1.693458,2.25819 0.558867,0.7576 1.110119,1.52317 1.659975,2.29014 0.540894,0.74884 1.075755,1.50395 1.612246,2.25728 0.51605,0.72745 1.036825,1.45003 1.558137,2.17202 0.507382,0.70809 1.022501,1.40805 1.54437,2.10079 0.499907,0.67268 1.009689,1.33461 1.522487,1.99314 0.491488,0.6283 0.988618,1.25029 1.494681,1.86175 0.484516,0.58515 0.981001,1.15567 1.489804,1.71036 0.491648,0.53768 1.006095,1.04408 1.526459,1.54107 0.504348,0.48231 1.032951,0.92518 1.567494,1.35749 0.515611,0.41643 1.051277,0.79481 1.594397,1.15685 0.525903,0.34676 1.063188,0.66794 1.610349,0.9635 0.532597,0.28747 1.079853,0.53183 1.634853,0.74893 0.543364,0.20535 1.098554,0.35981 1.660258,0.47175 0.566179,0.10708 1.138968,0.12652 1.710833,0.11008 0.587862,-0.0167 1.168967,-0.12197 1.742167,-0.27301 1.295428,-0.40263 3.223374,-0.99935 -2.802927,0.88961 -0.0996,0.0314 0.197966,-0.0679 0.296403,-0.10435 0.269046,-0.0989 0.325582,-0.12563 0.592115,-0.23666 0.603942,-0.2594 1.187465,-0.57969 1.763913,-0.91557 0.579778,-0.33977 1.144738,-0.71393 1.703567,-1.10038 0.546461,-0.38247 1.083905,-0.78295 1.616375,-1.19267 0.516791,-0.39791 1.024281,-0.81265 1.528174,-1.23345 0.48347,-0.40532 0.95929,-0.82341 1.43093,-1.24815 0.4594,-0.41241 0.90598,-0.84461 1.34818,-1.28297 0.43221,-0.42755 0.85104,-0.87372 1.26447,-1.32698 0.40113,-0.44155 0.78722,-0.90211 1.16465,-1.37257 0.36709,-0.45901 0.7254,-0.92788 1.08427,-1.39605 0.34406,-0.44486 0.67821,-0.90037 1.01406,-1.35407 0,0 3.82932,-0.74387 3.82932,-0.74387 v 0 c -0.33904,0.45423 -0.67324,0.91364 -1.01769,1.36206 -0.36054,0.46983 -0.71924,0.9418 -1.08626,1.40435 -0.37672,0.48028 -0.76113,0.95187 -1.16301,1.40222 -0.41212,0.46267 -0.83156,0.91588 -1.26402,1.35118 -0.44203,0.4455 -0.88863,0.88464 -1.34706,1.30583 -0.47328,0.42869 -0.94815,0.85485 -1.43314,1.26448 -0.50435,0.4268 -1.01242,0.84729 -1.52966,1.25152 -0.53323,0.41528 -1.07004,0.82389 -1.6167,1.21353 -0.55806,0.39592 -1.121813,0.78077 -1.700521,1.13211 -0.575377,0.34766 -1.155918,0.68373 -1.756275,0.96589 -1.766491,0.80642 -3.616716,1.32409 -5.461414,1.80916 -0.586059,0.12068 -1.177547,0.20167 -1.773302,0.1939 -0.583033,-0.0109 -1.166091,-0.0535 -1.739345,-0.19002 -0.567963,-0.13876 -1.131098,-0.30698 -1.679331,-0.53459 -0.558125,-0.23623 -1.109801,-0.49444 -1.645928,-0.79599 -0.54867,-0.31123 -1.090155,-0.64062 -1.617995,-1.00024 -0.545608,-0.37522 -1.083382,-0.76693 -1.601616,-1.1948 -0.537586,-0.44289 -1.06616,-0.90143 -1.573639,-1.39316 -0.522792,-0.50619 -1.037619,-1.02442 -1.531332,-1.57129 -0.50865,-0.5639 -1.006555,-1.1415 -1.492122,-1.73401 -0.504224,-0.61786 -1.002106,-1.24315 -1.492874,-1.87642 -0.511419,-0.66204 -1.019643,-1.3276 -1.519644,-2.00212 -0.520898,-0.69674 -1.034544,-1.40114 -1.543358,-2.11059 -0.521089,-0.72287 -1.040742,-1.44726 -1.555447,-2.17669 -0.534244,-0.75388 -1.06823,-1.50806 -1.607445,-2.25685 -0.549083,-0.76526 -1.099307,-1.5294 -1.658263,-2.28437 -0.558295,-0.75577 -1.120832,-1.50704 -1.690586,-2.25046 -0.57148,-0.74676 -1.144627,-1.49172 -1.727782,-2.22546 -0.582788,-0.73461 -1.172557,-1.46102 -1.771773,-2.17641 -0.590506,-0.7082 -1.188661,-1.40744 -1.807968,-2.07967 -0.605982,-0.65208 -1.221633,-1.29171 -1.863626,-1.89277 -0.622221,-0.57784 -1.254898,-1.139 -1.908765,-1.6648 -0.648554,-0.52128 -1.306466,-1.02605 -1.980911,-1.49817 -0.676485,-0.47086 -1.363286,-0.91977 -2.064375,-1.3361 -0.696493,-0.41559 -1.399381,-0.81592 -2.112826,-1.18821 -0.706199,-0.36352 -1.419217,-0.70763 -2.142852,-1.0185 -0.703497,-0.3014 -1.412289,-0.58607 -2.132865,-0.82378 -0.700163,-0.2282 -1.403603,-0.44275 -2.115708,-0.61132 -0.686715,-0.16118 -1.376787,-0.30264 -2.07312,-0.39007 -0.673062,-0.0824 -1.348534,-0.14029 -2.025533,-0.13877 -0.662933,0.005 -1.326351,0.0262 -1.986285,0.10751 -0.650387,0.0799 -1.299068,0.18118 -1.939679,0.34061 -0.293419,0.0731 -0.338927,0.0822 -0.630553,0.16449 -0.104405,0.0296 -0.416252,0.12471 -0.31265,0.0913 6.007683,-1.9328 4.047457,-1.29272 2.753152,-0.87775 -0.606407,0.21493 -1.209433,0.44571 -1.798215,0.72325 -0.571892,0.27877 -1.139691,0.57167 -1.68562,0.91844 -0.545302,0.34641 -1.083105,0.71069 -1.598549,1.11827 -0.524601,0.41473 -1.035228,0.85371 -1.529381,1.3193 -0.500914,0.47576 -0.995676,0.96161 -1.465279,1.48171 -0.478901,0.52966 -0.955994,1.06173 -1.415151,1.61618 -0.46405,0.55987 -0.922025,1.12707 -1.361309,1.71516 -0.44188,0.59538 -0.882652,1.19208 -1.312055,1.80046 -0.422768,0.60035 -0.845812,1.20062 -1.249345,1.8199 -0.383911,0.5837 -0.759735,1.17499 -1.122078,1.77823 -0.334444,0.55619 -0.66603,1.11516 -0.979117,1.68909 -0.286213,0.51719 -0.565667,1.0399 -0.840012,1.56619 -0.23436,0.45883 -0.466254,0.91955 -0.692111,1.38449 -0.186142,0.39042 -0.377422,0.7774 -0.549849,1.17694 -0.143729,0.32688 -0.29089,0.6516 -0.428642,0.98226 -0.114132,0.26434 -0.224033,0.53136 -0.331665,0.79959 -0.08396,0.20454 -0.166432,0.40965 -0.256534,0.61035 -0.05821,0.14803 -0.121176,0.29305 -0.177628,0.44196 -0.03604,0.0848 -0.07363,0.16791 -0.120646,0.2447 0,0 -3.890254,0.8153 -3.890254,0.8153 z"
       inkscape:connector-curvature="0" />
  </g>
</svg>
